<svg xmlns="http://www.w3.org/2000/svg" viewBox="0 0 201.83 201.6"><defs><style>.e7375ba7-5e03-4066-9741-d32a3d4c5266{fill:#2aace2}.e10f2b03-fd67-4c95-88fc-61c8b4abc467{fill:#fff}</style></defs><title>safari-pinned-tab</title><g id="b734647e-3334-4716-92f1-2ef1e5f827ca" data-name="Layer 2"><path class="e7375ba7-5e03-4066-9741-d32a3d4c5266" d="M0 0h201.6v201.6H0z" id="61849e61-c3ac-42c8-99b9-fffd365410f6" data-name="Layer 3"/><path class="e10f2b03-fd67-4c95-88fc-61c8b4abc467" d="M155.61 67.69l10.77-17.87h-37.57l-8.76 13.55h22.37l-9.21 15.29a16.94 16.94 0 1 1-4.76 28.65 41.41 41.41 0 0 1-6.93 12.69 31.23 31.23 0 1 0 34.1-52.29zM67.5 63.67c-1-.12-1.93-.23-2.87-.3a50.13 50.13 0 0 0-8.7 0c-6.7.63-11.95 2.75-15.84 6l-9.14-4v60.3h15.87V90.86c0-7.36 2.8-12.31 9.73-12.57a38.35 38.35 0 0 1 6.19-10 37.65 37.65 0 0 1 4.76-4.62z"/><path class="e10f2b03-fd67-4c95-88fc-61c8b4abc467" d="M121.63 101.86a39.46 39.46 0 0 0 .93-7.52 32.91 32.91 0 0 0-2.51-12.67 29.66 29.66 0 0 0-14.45-15.41A31 31 0 0 0 92 63.17h-.55A30 30 0 0 0 68.8 73.52a31.13 31.13 0 0 0-7.12 15.76 34 34 0 0 0-.41 5.05v53.49h15.41V92.46a14.89 14.89 0 0 1 4.94-10.8 16.72 16.72 0 0 1 10.7-4.16 17.06 17.06 0 0 1 16.41 17c0 .55 0 1.1-.08 1.64a17 17 0 0 1-17 15.43h-.42l-7.26 12a25.22 25.22 0 0 0 10.08 2 26.77 26.77 0 0 0 18.23-7.36 33.39 33.39 0 0 0 8.72-13.72l.68-2.38v-.12z"/></g></svg>